<svg version="1" xmlns="http://www.w3.org/2000/svg" width="446.667" height="446.667" viewBox="0 0 335.000000 335.000000"><path d="M149.5 1.7c-10.4 1.3-25.9 4.9-34.7 7.9C58.7 29 17.5 76.1 5.8 134.3c-3.1 15.1-3.3 45.9-.4 61.2 2.4 12.9 8.3 30.9 13.5 41.3l4.2 8.3 5.2-3c2.9-1.7 18.5-10.8 34.7-20.2l29.5-17.1 10.6-18.6c5.9-10.3 21.8-38.1 35.4-61.7l24.8-43 .4-40.3.4-40.2-5.8.1c-3.2.1-7.1.4-8.8.6zM171 41.8v41l6.8 11.9c3.8 6.5 16.9 29.1 29.2 50.3 12.3 21.2 25.2 43.4 28.7 49.5 3.5 6 6.9 11.5 7.6 12.2 1.6 1.6 67.5 39.3 68.7 39.3 1.6 0 8.9-15.4 12.6-26.5 6.7-20.1 7.8-27.4 7.8-53 .1-20.4-.2-24.2-2.2-33.9-9.1-42.4-33.2-78.5-69-103.4-9.7-6.7-31-17.2-42.2-20.7-12.6-3.9-26.2-6.5-37.7-7.2L171 .7v41.1zM77 223.3c-9.7 5.6-24.7 14.2-33.3 19.2-9.2 5.3-15.7 9.6-15.7 10.5 0 2.4 13.3 19.7 22.3 28.8 22.9 23.4 55.7 40.8 88.2 46.8 14.1 2.7 44.9 2.7 59 0 31.2-5.8 63.2-22.3 85.3-43.9 7.9-7.7 16.8-18.2 22.1-26 2.8-4.1 3.1-5.1 2-6.2-.8-.6-16.5-9.8-34.9-20.4L238.4 213h-71.9l-72 .1L77 223.3z"/></svg>